HIERARCHY
ROOT hip
{
	OFFSET 0.000000 0.000000 0.000000 
	CHANNELS 6 Xposition Yposition Zposition Xrotation Zrotation Yrotation
	JOINT abdomen
	{
		OFFSET 0.000000 3.402643 0.000000 
		CHANNELS 3 Xrotation Zrotation Yrotation
		JOINT chest
		{
			OFFSET 0.000000 8.438565 -0.680529 
			CHANNELS 3 Xrotation Zrotation Yrotation
			JOINT neck
			{
				OFFSET 0.000000 10.207942 -0.272212 
				CHANNELS 3 Xrotation Zrotation Yrotation
				JOINT head
				{
					OFFSET 0.000000 3.130431 0.000000 
					CHANNELS 3 Xrotation Zrotation Yrotation
					End Site
					{
						OFFSET 0.000000 3.130435 0.000000 
					}
				}
			}
			JOINT lCollar
			{
				OFFSET 3.470700 6.669187 -0.816635 
				CHANNELS 3 Yrotation Zrotation Xrotation
				JOINT lShldr
				{
					OFFSET 3.198488 0.000000 0.000000 
					CHANNELS 3 Zrotation Yrotation Xrotation
					JOINT lForeArm
					{
						OFFSET 10.139888 0.000000 0.000000 
						CHANNELS 3 Yrotation Zrotation Xrotation
						JOINT lHand
						{
							OFFSET 8.370511 0.000000 0.000000 
							CHANNELS 3 Zrotation Yrotation Xrotation
							End Site
							{
								OFFSET 4.083176 0.000000 0.000000 
							}
						}
					}
				}
			}
			JOINT rCollar
			{
				OFFSET -3.470700 6.669187 -0.816635 
				CHANNELS 3 Yrotation Zrotation Xrotation
				JOINT rShldr
				{
					OFFSET -3.198488 0.000000 0.000000 
					CHANNELS 3 Zrotation Yrotation Xrotation
					JOINT rForeArm
					{
						OFFSET -10.139888 0.000000 0.000000 
						CHANNELS 3 Yrotation Zrotation Xrotation
						JOINT rHand
						{
							OFFSET -8.370511 0.000000 0.000000 
							CHANNELS 3 Zrotation Yrotation Xrotation
							End Site
							{
								OFFSET -4.083176 0.000000 0.000000 
							}
						}
					}
				}
			}
		}
	}
	JOINT lThigh
	{
		OFFSET 5.308129 -1.633274 1.361059 
		CHANNELS 3 Xrotation Zrotation Yrotation
		JOINT lShin
		{
			OFFSET -2.041588 -20.007561 0.000000 
			CHANNELS 3 Xrotation Zrotation Yrotation
			JOINT lFoot
			{
				OFFSET 0.000000 -19.190928 -1.224953 
				CHANNELS 3 Xrotation Yrotation Zrotation
				End Site
				{
					OFFSET 0.000000 -2.449906 4.627600 
				}
			}
		}
	}
	JOINT rThigh
	{
		OFFSET -5.308129 -1.633274 1.361059 
		CHANNELS 3 Xrotation Zrotation Yrotation
		JOINT rShin
		{
			OFFSET 2.041588 -20.007561 0.000000 
			CHANNELS 3 Xrotation Zrotation Yrotation
			JOINT rFoot
			{
				OFFSET 0.000000 -19.190928 -1.224953 
				CHANNELS 3 Xrotation Yrotation Zrotation
				End Site
				{
					OFFSET 0.000000 -2.449906 4.627600 
				}
			}
		}
	}
}
MOTION
Frames: 10
Frame Time: 0.033333
3.417407 36.362980 3.417407 -13.046922 0.152215 -0.045039 44.293629 9.325987 -33.139362 9.365141 -0.288160 -10.634636 -8.544922 -0.001505 -0.009645 20.904978 2.919087 38.266994 2.000000 -2.000000 0.000000 78.455452 -42.748428 -71.302216 -84.676651 -0.509280 8.931506 -38.984737 54.185028 -153.202530 -2.000000 2.000000 0.000000 36.201523 68.919937 0.176803 79.300529 0.506661 8.867165 17.179731 22.102659 -69.168167 -63.538475 6.903331 -2.048023 55.301987 0.121032 -3.684649 20.782320 -2.834195 -5.028514 -56.854050 -6.572001 8.586355 99.054298 -3.163360 4.064275 -30.085125 -2.006241 10.968349 
3.417407 35.802036 3.417407 -12.304732 0.152659 -0.043064 44.908295 7.337373 -30.910210 9.482701 -0.277552 -10.631369 -8.544922 -0.001505 -0.009645 14.566283 6.167171 37.115574 2.000000 -2.000000 0.000000 83.812500 -45.705875 -74.282532 -77.582520 -0.509588 8.850432 -35.605949 49.482403 -148.383163 -2.000000 2.000000 0.000000 43.676685 65.945412 5.333267 80.168037 0.508050 8.883921 17.163687 22.118649 -69.176010 -66.284004 7.128402 -2.386350 58.722996 0.336754 -3.805582 19.293468 -3.032049 -5.362581 -57.835209 -6.309078 8.349661 100.818893 -3.292261 4.060308 -31.559660 -2.194242 10.629069 
3.412393 35.351234 3.412393 -11.591839 0.153061 -0.041162 45.697411 6.228211 -29.398315 9.747052 -0.246340 -10.624949 -8.544922 -0.001505 -0.009645 6.795350 8.921790 36.009632 2.000000 -2.000000 0.000000 89.040993 -48.020813 -76.785332 -69.810272 -0.514767 8.770649 -32.036953 43.213104 -144.400925 -2.000000 2.000000 0.000000 49.775993 64.055161 9.304762 79.232140 0.510130 8.875356 17.133776 22.130072 -69.187561 -68.587540 7.196680 -2.648694 61.763931 0.531845 -3.890749 17.800047 -3.089042 -5.576383 -58.363480 -6.220736 8.215763 102.156227 -3.380872 4.021588 -33.044006 -2.304672 10.456314 
3.412393 35.160961 3.412393 -10.937545 0.162998 -0.041265 46.824959 5.883911 -28.432596 10.177691 -0.203850 -10.617945 -8.544922 -0.001505 -0.009645 -0.365900 10.528930 35.119370 2.000000 -2.000000 0.000000 94.176804 -49.127609 -79.317352 -61.784969 -0.536545 8.689953 -29.672523 36.292503 -141.586044 -2.000000 2.000000 0.000000 54.954674 63.225838 12.512614 77.235550 0.508155 8.844304 17.113150 22.146940 -69.186661 -70.152847 7.167627 -2.777782 63.995609 0.667792 -3.956953 16.463596 -3.015512 -5.658510 -58.253632 -6.279606 8.266733 102.721687 -3.419885 4.023765 -34.356628 -2.409797 10.457169 
3.412393 35.321232 3.412393 -10.302777 0.163336 -0.049223 48.300533 5.926225 -27.619843 10.764874 -0.150056 -10.609118 -8.544922 -0.001505 -0.009645 -4.548982 10.498196 34.607834 2.000000 -2.000000 0.000000 99.126656 -49.337608 -81.712013 -54.312031 -0.561021 8.627064 -28.378996 29.740358 -139.656067 -2.000000 2.000000 0.000000 59.514355 63.094406 15.097732 74.907448 0.509600 8.826444 17.113150 22.146940 -69.186661 -70.728867 7.079349 -2.751397 65.174507 0.755133 -3.984156 15.251799 -2.906440 -5.646296 -57.417187 -6.465256 8.253372 102.282227 -3.390675 4.040874 -35.402714 -2.503079 10.483665 
3.412393 35.641769 3.412393 -9.726603 0.163628 -0.037813 50.051167 6.262130 -26.958567 11.469623 -0.085300 -10.595185 -8.544922 -0.001505 -0.009645 -5.571404 8.841029 34.644356 2.000000 -2.000000 0.000000 103.160080 -48.743359 -83.409508 -47.967396 -0.591523 8.563565 -28.048553 24.122332 -138.234894 -2.000000 2.000000 0.000000 63.636818 63.567459 17.361544 73.037407 0.505765 8.798048 17.179731 22.102659 -69.168167 -70.624031 6.962659 -2.651435 65.574402 0.775487 -3.988778 14.111260 -2.714383 -5.548711 -56.100975 -6.738307 8.278287 101.141342 -3.311571 4.044462 -36.191280 -2.578089 10.543813 
3.412393 36.042442 3.412393 -9.160193 0.163897 -0.036194 51.966431 6.822454 -26.419870 12.242590 -0.009782 -10.582014 -8.544922 -0.001505 -0.009645 -5.111604 6.236386 34.915443 2.000000 -2.000000 0.000000 106.129517 -47.763939 -84.178802 -42.744255 -0.621154 8.517731 -28.228567 19.361588 -137.283859 -2.000000 2.000000 0.000000 67.737411 64.374924 19.725986 71.556129 0.512217 8.786496 17.340670 22.026848 -69.110558 -70.253288 6.806386 -2.494660 65.749954 0.785187 -3.990299 13.089360 -2.510163 -5.418534 -54.628193 -7.080100 8.328799 99.784897 -3.213868 4.080996 -36.894875 -2.624163 10.683558 
3.412393 36.523247 3.412393 -8.613316 0.164142 -0.034629 53.950298 7.577374 -25.954805 13.044807 0.066428 -10.568723 -8.544922 -0.001505 -0.009645 -3.571620 3.007936 35.205093 2.000000 -2.000000 0.000000 108.428917 -46.839638 -84.279633 -38.170898 -0.652999 8.478489 -28.562351 14.997939 -136.591324 -2.000000 2.000000 0.000000 72.089966 65.281914 22.509413 69.987640 0.508206 8.780028 17.580851 21.903372 -69.015747 -69.723000 6.630156 -2.283356 65.749535 0.794068 -3.994418 12.037686 -2.283180 -5.239282 -53.011364 -7.431669 8.374795 98.244179 -3.106428 4.090401 -37.511063 -2.689925 10.818766 
3.412393 37.004055 3.412393 -8.095737 0.164359 -0.033145 55.915695 8.388969 -25.573793 13.837920 0.142399 -10.543051 -8.544922 -0.001505 -0.009645 -1.348082 -0.529083 35.307018 2.000000 -2.000000 0.000000 109.727554 -45.948181 -83.670624 -34.755409 -0.670848 8.456035 -29.062103 11.325562 -136.199707 -2.000000 2.000000 0.000000 76.684654 66.319664 25.764254 68.381599 0.515749 8.759230 17.824385 21.771074 -68.918381 -68.977402 6.454326 -2.079555 65.621964 0.793967 -4.008322 10.963313 -2.038797 -5.030367 -51.252865 -7.832348 8.410782 96.497948 -2.989240 4.119338 -38.085445 -2.746901 10.984738 
3.412393 37.499989 3.412393 -7.607454 0.164553 -0.031744 57.748909 9.242672 -25.246874 14.581696 0.208734 -10.524689 -8.544922 -0.001505 -0.009645 1.211828 -4.077848 35.151886 2.000000 -2.000000 0.000000 109.651138 -45.080936 -82.194466 -32.931988 -0.685919 8.441070 -29.724274 8.651903 -136.091324 -2.000000 2.000000 0.000000 81.525963 67.515083 29.618385 66.722076 0.515930 8.735860 18.028580 21.644720 -68.845085 -68.131477 6.288614 -1.858366 65.398766 0.775493 -3.981261 9.875939 -1.833085 -4.816533 -49.299923 -8.251700 8.382370 94.566879 -2.861204 4.138725 -38.615150 -2.807966 11.097436 
